<svg width="458" height="458" viewBox="0 0 458 458" fill="none" xmlns="http://www.w3.org/2000/svg">
<g clip-path="url(#clip0_1_1873)">
<path d="M61.852 363.4C60.052 359.9 59.552 359.5 57.852 360.4C54.652 362.1 52.352 361.5 48.852 357.9L45.552 354.5L49.952 352.6C52.352 351.5 57.952 350.4 62.352 350C89.452 347.5 146.452 330.8 223.352 302.9C255.452 291.2 303.752 272.8 304.652 271.9C305.852 270.7 303.652 270.4 292.752 270.2C282.152 270 281.052 270.2 276.252 272.6C263.152 279.4 201.652 303.8 183.452 309.3L176.552 311.4L170.152 306.4L163.652 301.5L160.052 303C138.752 312 72.052 339.4 70.852 339.6C69.852 339.8 69.252 339 69.052 337.3C68.752 334.9 69.552 334.3 76.852 330.4C81.352 328.1 84.752 325.9 84.352 325.6C84.052 325.2 80.052 324.7 75.452 324.3C65.752 323.5 58.152 320.3 47.252 312.4C42.452 308.9 39.452 307.4 37.252 307.4C32.952 307.4 30.852 308.3 30.852 310.1C30.852 310.9 37.652 318.8 45.952 327.7C58.952 341.4 60.852 343.9 59.252 344.5C55.552 346 54.452 345.3 42.952 334.2C36.552 328 28.352 320 24.652 316.5L17.952 310L9.15203 314.2L0.352026 318.4L0.0520259 315C-0.147974 313 0.252026 310.6 0.852026 309.5C1.45203 308.4 7.35203 304.7 13.952 301.3C25.752 295.3 28.152 293.3 26.152 291.3C25.452 290.6 22.052 291.8 15.952 294.8L6.85203 299.4V296.9C6.85203 294.9 8.25203 293.6 14.552 289.9C24.852 283.9 31.852 281.8 36.852 283.3C38.952 283.9 47.552 289.6 55.952 295.9C74.952 310.2 85.352 315.8 91.852 315.1C97.152 314.6 125.852 301.4 153.752 286.6C172.052 276.9 175.352 274.5 173.252 272.4C172.552 271.7 166.152 274.2 151.852 280.9C137.152 287.9 131.352 290.2 130.752 289.3C129.552 287.3 130.652 286 136.352 283C139.352 281.4 141.852 279.6 141.852 279C141.852 278.3 140.552 276.5 139.052 275L136.152 272.3L116.352 281.9C105.452 287.1 96.352 291.2 96.152 291C95.352 290.3 98.652 278.2 99.952 276.9C100.752 276.1 109.452 271.3 119.352 266.1C137.052 256.7 137.352 256.5 137.152 253.4C137.152 251.7 136.752 250 136.452 249.7C136.152 249.4 132.552 250.6 128.452 252.4L121.052 255.7L112.152 246.4C107.352 241.3 103.252 236.8 103.052 236.4C102.552 235 111.852 228.5 117.652 226.3C128.052 222.3 128.552 222.4 236.152 237.6C271.752 242.6 301.652 247.3 302.652 248C304.252 249.1 304.252 249.4 302.552 252.8L300.852 256.5L303.652 257.5C305.152 258 309.452 259.6 313.152 261.1L320.052 263.6L330.152 259.3C342.552 254.1 363.052 243.7 375.752 236.1L385.152 230.6L388.352 233C391.552 235.4 395.252 236.1 396.252 234.6C396.552 234.1 393.752 227.7 389.952 220.3C386.252 212.9 381.252 201.9 378.952 195.9C376.552 189.8 374.152 184.3 373.552 183.5C372.652 182.5 370.252 182.3 362.852 182.7C352.052 183.2 344.752 185.3 320.852 194.7C305.452 200.7 253.152 226.2 250.252 229.1C248.952 230.5 246.852 230.5 231.052 229C221.352 228.1 213.052 227.4 212.652 227.4C211.252 227.4 211.852 221.9 213.752 217.7C215.352 214.3 217.652 212.3 227.752 205.6C242.052 196.1 255.952 189.1 265.152 186.7L271.652 185L281.552 188.9C295.852 194.5 297.852 194.5 321.352 187.9C359.552 177.3 364.852 176.1 373.552 176C381.552 175.9 381.852 176 385.152 179.3C387.752 181.8 390.852 187.6 397.152 202.3C401.852 213.1 406.152 223.6 406.852 225.8C408.552 231.2 407.652 237.7 404.452 241.8C397.752 250.6 366.452 267 322.352 284.6C299.552 293.7 260.552 306.5 159.852 337.9C128.752 347.6 95.152 358.2 85.252 361.5C75.252 364.7 66.352 367.4 65.452 367.4C64.652 367.4 62.952 365.6 61.852 363.4ZM291.352 258.4C295.152 256.1 298.452 251.5 297.152 250.4C296.552 249.9 152.252 229.6 138.352 228.1C137.152 228 136.352 228.5 136.352 229.4C136.352 230.6 151.852 234 208.352 245.5C247.952 253.6 282.052 260.2 284.252 260.3C286.552 260.4 289.452 259.6 291.352 258.4ZM247.652 212C251.852 209.7 258.852 206.2 263.052 204.3C267.352 202.4 270.852 200.6 270.852 200.2C270.852 199.8 268.052 198.9 264.652 198.2C256.952 196.5 250.952 197.3 242.252 201.5C235.552 204.6 223.352 213.2 224.152 214.1C224.752 214.6 233.452 216 237.652 216.3C238.952 216.3 243.452 214.4 247.652 212ZM282.152 205.8C289.652 202 292.852 199.8 292.652 198.7C292.252 196.6 274.352 189.5 269.252 189.4C267.052 189.4 264.352 190 263.252 190.8C261.152 192.4 261.152 192.4 273.652 197.3C276.252 198.3 278.452 199.6 278.652 200.2C278.852 200.8 276.752 202.4 273.952 203.8C268.452 206.6 267.352 207.8 268.252 209.9C269.052 212.2 270.552 211.8 282.152 205.8Z" fill="#E40539"/>
<path d="M440.552 286.2C433.752 276.1 427.052 265.9 425.652 263.4C424.152 260.9 420.152 249.3 416.552 237.7L410.052 216.4L415.152 211.4C417.852 208.6 420.252 206.5 420.352 206.6C420.452 206.8 425.552 216 431.752 227.2C443.652 248.5 447.552 258.2 454.852 285.2C458.152 297.1 458.152 297.5 456.552 300.9C455.652 302.8 454.452 304.4 453.952 304.4C453.452 304.4 447.452 296.2 440.552 286.2ZM454.652 296.5C454.852 294.6 454.152 291.9 452.952 289.8C451.152 286.7 430.952 259.4 428.652 256.9C427.452 255.6 425.652 258.4 426.452 260.4C427.652 263.8 452.452 300.3 453.352 300C453.952 299.9 454.452 298.3 454.652 296.5Z" fill="#E40539"/>
<path d="M295.352 238.3C282.152 235.7 270.752 233.4 269.952 233.2C269.152 233 281.252 227.8 296.952 221.6L325.252 210.2L330.552 216.1C333.452 219.3 335.752 222.4 335.852 223C335.852 223.6 333.552 228.5 330.752 233.8C325.952 242.9 325.552 243.4 322.552 243.3C320.752 243.2 308.552 241 295.352 238.3Z" fill="#E40539"/>
<path d="M334.852 242.1C334.852 241.9 336.452 238.5 338.452 234.6C340.352 230.6 342.552 225.6 343.352 223.5L344.652 219.7L339.352 212.8C334.052 206 333.952 205.9 336.152 204.7C338.152 203.6 338.752 203.9 342.352 207.9C344.552 210.4 346.652 212.4 346.952 212.4C347.252 212.4 348.652 208.5 349.952 203.7L352.352 194.9L352.652 199.8C352.852 202.4 352.452 207.8 351.852 211.6L350.852 218.6L355.952 225L361.052 231.4L358.352 232.4C356.152 233.3 355.452 233 353.352 230.6C352.052 229.1 350.852 227.6 350.852 227.2C350.752 224.9 348.952 227.1 346.952 231.8C345.752 234.8 344.152 237.7 343.452 238.3C342.052 239.4 334.852 242.6 334.852 242.1Z" fill="#E40539"/>
<path d="M404.752 204.7C397.552 188.6 397.452 188.3 398.952 187.2C400.452 186.2 420.152 186.8 423.152 187.9C424.052 188.3 424.852 189.3 424.852 190.1C424.852 194.3 412.252 211.4 409.252 211.4C408.352 211.4 406.452 208.5 404.752 204.7ZM414.152 194.7C418.952 192.7 422.852 190.7 422.852 190.3C422.852 189.1 418.452 188.4 409.652 188.4C401.452 188.4 400.852 188.5 400.852 190.4C400.852 192.8 403.552 198.4 404.652 198.4C405.052 198.4 409.252 196.8 414.152 194.7Z" fill="#E40539"/>
<path d="M385.052 165.9C374.352 146.8 371.052 138.6 364.352 114.3C360.352 100 360.052 95.6 362.752 92.3L364.652 90L379.452 112.3L394.252 134.6L401.852 158.8C406.052 172 409.252 183 408.952 183.1C408.652 183.2 405.452 183.4 401.852 183.7L395.352 184.1L385.052 165.9ZM391.852 136.5C391.852 135 368.652 99 365.752 95.9C364.452 94.6 362.852 97.1 362.852 100.6C362.852 103.1 371.652 116 385.152 133.3C389.752 139.3 391.852 140.3 391.852 136.5Z" fill="#E40539"/>
</g>
<defs>
<clipPath id="clip0_1_1873">
<rect width="458" height="278" fill="white" transform="translate(0 90)"/>
</clipPath>
</defs>
</svg>
